<svg xmlns="http://www.w3.org/2000/svg" width="154.109" height="48.407" viewBox="0 0 154.109 48.407">
  <g id="apple" transform="translate(0.5 0.5)">
    <rect id="Rectangle_456" data-name="Rectangle 456" width="153.109" height="47.407" rx="8.491" transform="translate(0 0)" fill="none" stroke="#fff" stroke-width="1"/>
    <g id="Group_1068" data-name="Group 1068" transform="translate(13.83 8.372)">
      <g id="Group_1058" data-name="Group 1058">
        <g id="Group_1056" data-name="Group 1056" transform="translate(0 7.074)">
          <path id="Path_221" data-name="Path 221" d="M238.607,341.737a6.66,6.66,0,0,1,3.174-5.591,6.82,6.82,0,0,0-5.376-2.908c-2.261-.237-4.455,1.355-5.6,1.355-1.174,0-2.952-1.331-4.861-1.293a7.163,7.163,0,0,0-6.024,3.675c-2.6,4.509-.662,11.136,1.833,14.783,1.249,1.785,2.708,3.779,4.617,3.708,1.867-.078,2.564-1.19,4.82-1.19,2.235,0,2.89,1.19,4.837,1.145,2-.033,3.266-1.794,4.47-3.6a14.7,14.7,0,0,0,2.046-4.165,6.44,6.44,0,0,1-3.931-5.925" transform="translate(-218.679 -333.215)" fill="#fff"/>
        </g>
        <g id="Group_1057" data-name="Group 1057" transform="translate(11.855)">
          <path id="Path_222" data-name="Path 222" d="M246.208,324.112a6.546,6.546,0,0,0,1.5-4.7,6.669,6.669,0,0,0-4.317,2.235,6.239,6.239,0,0,0-1.542,4.527,5.518,5.518,0,0,0,4.359-2.061" transform="translate(-241.814 -319.411)" fill="#fff"/>
        </g>
      </g>
      <g id="Group_1067" data-name="Group 1067" transform="translate(34.051 13.551)">
        <g id="Group_1059" data-name="Group 1059" transform="translate(0 0.228)">
          <path id="Path_223" data-name="Path 223" d="M298,361.552h-2.6l-1.426-4.482h-4.954l-1.36,4.482h-2.534l4.912-15.253h3.03Zm-4.456-6.362-1.288-3.983q-.207-.608-.771-2.872h-.045q-.228.975-.726,2.872l-1.267,3.983Z" transform="translate(-285.127 -346.299)" fill="#fff"/>
        </g>
        <g id="Group_1060" data-name="Group 1060" transform="translate(14.914 4.255)">
          <path id="Path_224" data-name="Path 224" d="M324.82,359.748a6.252,6.252,0,0,1-1.516,4.436,4.434,4.434,0,0,1-3.371,1.448,3.377,3.377,0,0,1-3.124-1.561h-.043v5.793H314.32V358q0-1.764-.09-3.62h2.149l.136,1.743h.047a4.346,4.346,0,0,1,6.957-.43,6.068,6.068,0,0,1,1.3,4.05m-2.489.09a4.543,4.543,0,0,0-.724-2.648,2.505,2.505,0,0,0-2.127-1.087,2.535,2.535,0,0,0-1.64.6,2.785,2.785,0,0,0-.962,1.575,3.178,3.178,0,0,0-.112.745v1.835a2.935,2.935,0,0,0,.732,2.024,2.438,2.438,0,0,0,1.913.826,2.5,2.5,0,0,0,2.149-1.062,4.672,4.672,0,0,0,.77-2.807" transform="translate(-314.23 -354.158)" fill="#fff"/>
        </g>
        <g id="Group_1061" data-name="Group 1061" transform="translate(27.564 4.255)">
          <path id="Path_225" data-name="Path 225" d="M349.505,359.748a6.248,6.248,0,0,1-1.517,4.436,4.429,4.429,0,0,1-3.371,1.448,3.373,3.373,0,0,1-3.121-1.561h-.045v5.793h-2.444V358q0-1.764-.09-3.62h2.148l.137,1.743h.047a4.345,4.345,0,0,1,6.957-.43,6.067,6.067,0,0,1,1.3,4.05m-2.487.09a4.529,4.529,0,0,0-.726-2.648,2.5,2.5,0,0,0-2.126-1.087,2.538,2.538,0,0,0-1.641.6,2.784,2.784,0,0,0-.96,1.575,3.088,3.088,0,0,0-.114.745v1.835a2.927,2.927,0,0,0,.734,2.024,2.431,2.431,0,0,0,1.914.826,2.5,2.5,0,0,0,2.149-1.062,4.7,4.7,0,0,0,.77-2.807" transform="translate(-338.917 -354.158)" fill="#fff"/>
        </g>
        <g id="Group_1062" data-name="Group 1062" transform="translate(42.834)">
          <path id="Path_226" data-name="Path 226" d="M378.177,357.057a4.059,4.059,0,0,1-1.356,3.168,6,6,0,0,1-4.153,1.334,7.289,7.289,0,0,1-3.954-.949l.566-2.037a6.7,6.7,0,0,0,3.534.972,3.343,3.343,0,0,0,2.152-.622,2.04,2.04,0,0,0,.767-1.666,2.131,2.131,0,0,0-.632-1.564,5.893,5.893,0,0,0-2.107-1.179q-4.005-1.5-4-4.375a3.866,3.866,0,0,1,1.4-3.081,5.536,5.536,0,0,1,3.734-1.2,7.408,7.408,0,0,1,3.462.725l-.61,1.991a6.027,6.027,0,0,0-2.921-.7,2.95,2.95,0,0,0-2.012.633,1.817,1.817,0,0,0-.61,1.381,1.857,1.857,0,0,0,.7,1.492,7.894,7.894,0,0,0,2.218,1.179,7.529,7.529,0,0,1,2.9,1.855,3.89,3.89,0,0,1,.927,2.648" transform="translate(-368.714 -345.854)" fill="#fff"/>
        </g>
        <g id="Group_1063" data-name="Group 1063" transform="translate(53.677 1.742)">
          <path id="Path_227" data-name="Path 227" d="M396.573,353.826H393.88v5.341q0,2.037,1.427,2.036a4.42,4.42,0,0,0,1.084-.112l.067,1.856a5.5,5.5,0,0,1-1.9.271,2.928,2.928,0,0,1-2.263-.88,4.339,4.339,0,0,1-.815-2.965v-5.545h-1.607v-1.834h1.607V349.98l2.4-.726v2.738h2.693Z" transform="translate(-389.874 -349.254)" fill="#fff"/>
        </g>
        <g id="Group_1064" data-name="Group 1064" transform="translate(61.758 4.255)">
          <path id="Path_228" data-name="Path 228" d="M416.414,359.793a6.035,6.035,0,0,1-1.447,4.165,5.174,5.174,0,0,1-4.028,1.674,4.917,4.917,0,0,1-3.859-1.607,5.843,5.843,0,0,1-1.437-4.048,5.968,5.968,0,0,1,1.482-4.187,5.121,5.121,0,0,1,3.993-1.631,5.028,5.028,0,0,1,3.893,1.607,5.794,5.794,0,0,1,1.4,4.028m-2.536.079a4.955,4.955,0,0,0-.656-2.609,2.412,2.412,0,0,0-2.193-1.316,2.447,2.447,0,0,0-2.241,1.316,5.049,5.049,0,0,0-.654,2.656,4.946,4.946,0,0,0,.654,2.608,2.464,2.464,0,0,0,2.22,1.316A2.439,2.439,0,0,0,413.2,362.5a4.953,4.953,0,0,0,.678-2.633" transform="translate(-405.643 -354.158)" fill="#fff"/>
        </g>
        <g id="Group_1065" data-name="Group 1065" transform="translate(74.588 4.255)">
          <path id="Path_229" data-name="Path 229" d="M436.563,356.533a4.366,4.366,0,0,0-.768-.067,2.318,2.318,0,0,0-1.993.974,3.668,3.668,0,0,0-.61,2.171v5.771H430.75l.021-7.534q0-1.9-.089-3.464h2.128l.09,2.106h.066a3.769,3.769,0,0,1,1.223-1.743,2.959,2.959,0,0,1,1.767-.589,3.967,3.967,0,0,1,.609.044Z" transform="translate(-430.681 -354.158)" fill="#fff"/>
        </g>
        <g id="Group_1066" data-name="Group 1066" transform="translate(81.624 4.233)">
          <path id="Path_230" data-name="Path 230" d="M454.187,359.341a5.949,5.949,0,0,1-.088,1.109h-7.331a3.2,3.2,0,0,0,1.062,2.491,3.628,3.628,0,0,0,2.4.766,8.126,8.126,0,0,0,2.964-.519l.383,1.7a9.193,9.193,0,0,1-3.69.681,5.335,5.335,0,0,1-4.016-1.507,5.565,5.565,0,0,1-1.459-4.04,6.3,6.3,0,0,1,1.359-4.142,4.68,4.68,0,0,1,3.845-1.763,4.1,4.1,0,0,1,3.6,1.763,5.953,5.953,0,0,1,.969,3.463m-2.33-.634a3.308,3.308,0,0,0-.474-1.878,2.139,2.139,0,0,0-1.948-1.019,2.324,2.324,0,0,0-1.945,1,3.613,3.613,0,0,0-.722,1.9Z" transform="translate(-444.412 -354.115)" fill="#fff"/>
        </g>
      </g>
    </g>
    <text id="Available_on_the" data-name="Available on the" transform="translate(92.305 15.594)" fill="#fff" font-size="9" font-family="Montserrat-Regular, Montserrat"><tspan x="-43" y="0">AVAILABLE ON THE</tspan></text>
  </g>
</svg>
