<svg xmlns="http://www.w3.org/2000/svg" width="24.045" height="23.043" viewBox="0 0 24.045 23.043">
  <g id="fav" transform="translate(-1.478 -1.957)">
    <path id="Path_3235" data-name="Path 3235" d="M13.223,23.829a40.389,40.389,0,0,1-6.973-5.47,14,14,0,0,1-3.319-5.331c-1.246-3.9.209-8.37,4.282-9.693A6.88,6.88,0,0,1,13.5,4.4a6.89,6.89,0,0,1,6.282-1.066c4.073,1.322,5.538,5.79,4.292,9.693a14,14,0,0,1-3.319,5.331,40.388,40.388,0,0,1-6.972,5.47L13.506,24Z" fill="none" stroke="#ed0182" stroke-linecap="round" stroke-linejoin="round" stroke-width="2" fill-rule="evenodd"/>
    <path id="Path_3236" data-name="Path 3236" d="M15.739,7.053A3.247,3.247,0,0,1,17.977,9.88" transform="translate(2.077 0.675)" fill="none" stroke="#ed0182" stroke-linecap="round" stroke-linejoin="round" stroke-width="2"/>
  </g>
</svg>
