<svg xmlns="http://www.w3.org/2000/svg" width="154.109" height="48.407" viewBox="0 0 154.109 48.407">
  <g id="googleplay" transform="translate(0.5 0.5)">
    <rect id="Rectangle_457" data-name="Rectangle 457" width="153.109" height="47.407" rx="8.491" transform="translate(0 0)" fill="none" stroke="#fff" stroke-width="1"/>
    <g id="Group_1071" data-name="Group 1071" transform="translate(47.248 20.325)">
      <path id="Path_243" data-name="Path 243" d="M314.9,459.093a4.867,4.867,0,1,0,4.886,4.867A4.8,4.8,0,0,0,314.9,459.093Zm0,7.817a2.957,2.957,0,1,1,2.747-2.95A2.815,2.815,0,0,1,314.9,466.91Zm-10.658-7.817a4.867,4.867,0,1,0,4.886,4.867A4.8,4.8,0,0,0,304.241,459.093Zm0,7.817a2.957,2.957,0,1,1,2.747-2.95A2.816,2.816,0,0,1,304.241,466.91Zm-12.678-6.324v2.065H296.5a4.312,4.312,0,0,1-1.125,2.6,5.056,5.056,0,0,1-3.816,1.512,5.494,5.494,0,0,1,0-10.988,5.265,5.265,0,0,1,3.724,1.475l1.456-1.456a7.2,7.2,0,0,0-5.18-2.083,7.56,7.56,0,1,0,0,15.118,6.911,6.911,0,0,0,5.273-2.12,6.824,6.824,0,0,0,1.788-4.83,6.734,6.734,0,0,0-.111-1.291Zm51.849,1.6a4.524,4.524,0,0,0-4.167-3.1,4.626,4.626,0,0,0-4.591,4.867,4.763,4.763,0,0,0,4.83,4.867,4.84,4.84,0,0,0,4.055-2.157l-1.659-1.106a2.78,2.78,0,0,1-2.4,1.346,2.475,2.475,0,0,1-2.36-1.475l6.508-2.691Zm-6.637,1.622a2.67,2.67,0,0,1,2.544-2.839,1.885,1.885,0,0,1,1.807,1.033Zm-5.291,4.72h2.138V454.226h-2.138Zm-3.5-8.351h-.074a3.373,3.373,0,0,0-2.563-1.088,4.872,4.872,0,0,0,0,9.734,3.316,3.316,0,0,0,2.563-1.106h.074v.7c0,1.862-1,2.858-2.6,2.858a2.694,2.694,0,0,1-2.452-1.733l-1.862.774a4.639,4.639,0,0,0,4.314,2.876c2.507,0,4.628-1.475,4.628-5.07v-8.739h-2.028Zm-2.452,6.729a2.96,2.96,0,0,1,0-5.9,2.973,2.973,0,0,1,0,5.9Zm27.9-12.684h-5.117v14.306h2.135v-5.42h2.982a4.45,4.45,0,1,0,0-8.886Zm.055,6.895h-3.037v-4.9h3.037a2.453,2.453,0,1,1,0,4.9Zm13.2-2.054a4.009,4.009,0,0,0-3.81,2.19l1.9.791A2.023,2.023,0,0,1,366.718,461a2.056,2.056,0,0,1,2.246,1.84v.148a4.724,4.724,0,0,0-2.227-.552c-2.043,0-4.123,1.123-4.123,3.221a3.3,3.3,0,0,0,3.552,3.147,3.013,3.013,0,0,0,2.724-1.4h.074v1.1h2.062v-5.485C371.025,460.484,369.129,459.067,366.681,459.067Zm-.258,7.84c-.7,0-1.675-.349-1.675-1.215,0-1.1,1.214-1.528,2.264-1.528a3.809,3.809,0,0,1,1.951.479A2.589,2.589,0,0,1,366.423,466.907Zm12.111-7.528-2.447,6.2h-.074l-2.54-6.2h-2.3l3.81,8.669-2.172,4.822h2.227l5.872-13.491ZM359.3,468.532h2.135V454.227H359.3Z" transform="translate(-283.893 -453.71)" fill="#fff"/>
    </g>
    <g id="Group_1077" data-name="Group 1077" transform="translate(11.694 9.003)">
      <g id="Group_1073" data-name="Group 1073" transform="translate(0 0.486)">
        <path id="Path_256" data-name="Path 256" d="M215.013,432.566a2.313,2.313,0,0,0-.5,1.57v25.288a2.468,2.468,0,0,0,.366,1.388L228.9,446.62Z" transform="translate(-214.511 -432.566)" fill="#fff"/>
      </g>
      <g id="Group_1074" data-name="Group 1074" transform="translate(1.107)">
        <path id="Path_257" data-name="Path 257" d="M230.458,445.651l4.331-4.381L218.47,432a2.194,2.194,0,0,0-1.8-.293Z" transform="translate(-216.671 -431.617)" fill="#fff"/>
      </g>
      <g id="Group_1075" data-name="Group 1075" transform="translate(0.889 15.046)">
        <path id="Path_258" data-name="Path 258" d="M230.251,460.979l-14.006,14.169a2.047,2.047,0,0,0,2.017-.194l16.522-9.388Z" transform="translate(-216.245 -460.979)" fill="#fff"/>
      </g>
      <g id="Group_1076" data-name="Group 1076" transform="translate(15.394 10.017)">
        <path id="Path_259" data-name="Path 259" d="M254.361,454.2l-5.338-3.033-4.472,4.523,4.674,4.728,5.135-2.917C255.959,456.59,255.959,455.1,254.361,454.2Z" transform="translate(-244.552 -451.164)" fill="#fff"/>
      </g>
    </g>
    <text id="Get_it_on" data-name="Get it on" transform="translate(69.305 14.727)" fill="#fff" font-size="9" font-family="Montserrat-Regular, Montserrat"><tspan x="-22" y="0">GET IT ON</tspan></text>
  </g>
</svg>
