<svg xmlns="http://www.w3.org/2000/svg" width="30" height="30" viewBox="0 0 30 30">
  <g id="in" transform="translate(0)">
    <circle id="Ellipse_2" data-name="Ellipse 2" cx="15" cy="15" r="15" transform="translate(0)" fill="#fff"/>
    <path id="Path_2" data-name="Path 2" d="M261.135,42.994a2.141,2.141,0,1,0,1.513.627A2.139,2.139,0,0,0,261.135,42.994Zm0-1.427a3.567,3.567,0,1,1-2.523,1.045A3.569,3.569,0,0,1,261.135,41.567Zm4.638-.178a.892.892,0,1,1-.261-.631A.893.893,0,0,1,265.772,41.389Zm-4.638-1.962c-1.765,0-2.053,0-2.875.041a3.876,3.876,0,0,0-1.283.237,2.226,2.226,0,0,0-1.273,1.272,3.87,3.87,0,0,0-.236,1.283c-.037.788-.041,1.063-.041,2.875,0,1.765.005,2.053.041,2.875a3.891,3.891,0,0,0,.236,1.282,2.218,2.218,0,0,0,1.271,1.272,3.884,3.884,0,0,0,1.284.238c.788.037,1.063.041,2.875.041,1.765,0,2.053,0,2.875-.041a3.9,3.9,0,0,0,1.282-.236,2.084,2.084,0,0,0,.771-.5,2.062,2.062,0,0,0,.5-.771,3.9,3.9,0,0,0,.237-1.284c.037-.788.041-1.063.041-2.875,0-1.765,0-2.053-.041-2.875a3.883,3.883,0,0,0-.237-1.283,2.08,2.08,0,0,0-.5-.771,2.053,2.053,0,0,0-.771-.5,3.874,3.874,0,0,0-1.283-.236C263.222,39.431,262.946,39.427,261.135,39.427Zm0-1.427c1.939,0,2.18.007,2.941.043a5.256,5.256,0,0,1,1.732.332,3.643,3.643,0,0,1,2.087,2.087,5.271,5.271,0,0,1,.332,1.732c.034.761.043,1,.043,2.941s-.007,2.18-.043,2.941a5.275,5.275,0,0,1-.332,1.732,3.643,3.643,0,0,1-2.087,2.087,5.27,5.27,0,0,1-1.732.332c-.761.034-1,.043-2.941.043s-2.18-.007-2.941-.043a5.275,5.275,0,0,1-1.732-.332,3.643,3.643,0,0,1-2.087-2.087,5.252,5.252,0,0,1-.332-1.732c-.034-.761-.043-1-.043-2.941s.007-2.18.043-2.941a5.252,5.252,0,0,1,.332-1.732,3.643,3.643,0,0,1,2.087-2.087,5.252,5.252,0,0,1,1.732-.332C258.954,38.009,259.2,38,261.135,38Z" transform="translate(-246.135 -30.135)"/>
  </g>
</svg>
