<svg xmlns="http://www.w3.org/2000/svg" xmlns:xlink="http://www.w3.org/1999/xlink" width="110" height="53" viewBox="0 0 110 53">
  <defs>
    <clipPath id="clip-path">
      <rect id="Rectangle_868" data-name="Rectangle 868" width="110" height="53" fill="#fff"/>
    </clipPath>
  </defs>
  <g id="Logo_pink" data-name="Logo pink" clip-path="url(#clip-path)">
    <path id="Path_3270" data-name="Path 3270" d="M49.112,9.643C47.3,9.236,45.5,8.735,43.7,8.294q-3.033-.741-6.066-1.5c-1.609-.4-3.225-.781-4.822-1.24-1.179-.339-2.383-.633-3.58-.909-1.908-.441-3.8-.932-5.7-1.409C22.38,2.948,21.247,2.6,20.1,2.353c-2.062-.444-4.086-1.035-6.141-1.5A19.114,19.114,0,0,0,8.928.005a14.762,14.762,0,0,0-2.41.271A9.078,9.078,0,0,0,2.9,1.843,6.932,6.932,0,0,0,.044,6.775,14.4,14.4,0,0,0,.3,10.5c.295,1.994.614,3.987.9,5.983.3,2.124.551,4.256.932,6.367.178.983.256,1.985.406,2.975.319,2.1.636,4.2.931,6.3.277,1.975.585,3.943.874,5.915.305,2.072.549,4.152.922,6.213.181,1,.189,2.022.433,3.03A5.329,5.329,0,0,0,7.431,50.1a9.725,9.725,0,0,0,6.357,2.426,46.415,46.415,0,0,0,7.841-.843c2.262-.319,4.526-.624,6.789-.936,2.139-.3,4.285-.528,6.412-.921,1.06-.2,2.139-.261,3.207-.416,2.26-.329,4.529-.6,6.789-.953a9.127,9.127,0,0,0,3.07-.918,6.8,6.8,0,0,0,3.661-5.05c.326-1.994.621-4,.916-6,.29-1.972.6-3.94.892-5.91.284-1.947.611-3.887.885-5.832.2-1.436.468-2.867.62-4.311a6.38,6.38,0,0,1,.117-1.13,7.857,7.857,0,0,0-.712-5.985A7.26,7.26,0,0,0,49.112,9.643ZM19.673,32.767a17.791,17.791,0,0,0-2.016,0c-.428.021-.548-.124-.54-.553.025-1.343-.006-2.688.018-4.032.008-.433-.057-.634-.555-.611-.97.044-1.943.037-2.913,0-.445-.015-.531.149-.524.563.024,1.343-.01,2.688.02,4.032.01.457-.1.633-.575.6a17.714,17.714,0,0,0-1.866,0c-.359.014-.519-.053-.516-.485q.027-6.086,0-12.174c0-.369.1-.492.461-.46.808.072,1.841-.339,2.362.171.38.372.112,1.438.121,2.2.009.735.018,1.471,0,2.206-.012.354.073.489.45.479.97-.027,1.943-.032,2.914,0,.473.015.644-.117.63-.625-.034-1.293.006-2.588-.021-3.879-.009-.433.118-.572.543-.55a17.778,17.778,0,0,0,2.016,0c.474-.03.575.134.569.595-.025,2-.01,4.007-.01,6.011,0,1.978-.015,3.957.012,5.934C20.25,32.64,20.141,32.8,19.673,32.767Zm15.259,0c-.671-.024-1.344-.034-2.015,0-.513.026-.685-.145-.675-.688.033-1.85.012-3.7.012-5.549v-.936c-.937,1.354-1.66,2.6-2.374,3.844a5.1,5.1,0,0,1-.8,1.165c-.217.213-.346.256-.531-.058-.753-1.282-1.536-2.546-2.3-3.823a2.91,2.91,0,0,0-.733-.977c-.241.367-.106.779-.111,1.166-.018,1.7-.028,3.4,0,5.093.01.557-.075.829-.711.768-.762-.072-1.8.264-2.232-.131-.491-.45-.145-1.522-.15-2.321-.016-3.319.012-6.639-.022-9.958-.006-.618.177-.788.739-.723a3.471,3.471,0,0,0,1.117,0c1.09-.233,1.6.392,2.07,1.249.762,1.4,1.585,2.767,2.392,4.143.171.29.283.236.452-.056.54-.93,1.13-1.83,1.688-2.749.471-.776.943-1.555,1.382-2.353.133-.242.316-.215.5-.218.771-.011,1.543.014,2.314-.012.361-.012.394.159.392.454q-.009,6.121,0,12.239C35.349,32.658,35.265,32.776,34.932,32.763Zm9.618,0c-2.163-.015-4.327-.021-6.49,0-.461.006-.512-.177-.509-.57.016-2,.008-4,.008-6,0-1.975.013-3.949-.009-5.924-.006-.465.07-.685.593-.639a10.773,10.773,0,0,0,1.789,0c.609-.047.736.2.73.785-.028,2.937,0,5.873-.022,8.81,0,.47.082.66.6.639,1.117-.044,2.238,0,3.356-.021.343-.006.488.073.471.456a19.729,19.729,0,0,0,0,1.975C45.09,32.71,44.913,32.767,44.55,32.763Z" transform="translate(0 0.001)" fill="#ed0182"/>
    <path id="Path_3271" data-name="Path 3271" d="M105.4,45.119c.4.357,1.334.056,2.024.123.637.061.835-.111.817-.8-.052-2.191-.02-4.384-.02-6.8.251.383.389.578.511.782.856,1.424,1.705,2.853,2.563,4.275.388.642.506.642.9-.011q1.457-2.427,2.9-4.858l.14.027v.733c0,2,.014,4.006-.01,6.009-.006.471.079.688.6.643a9.209,9.209,0,0,1,1.715,0c.577.059.687-.149.683-.706-.027-3.448.017-6.9-.034-10.344-.012-.836.114-1.238,1.035-1.3a3.654,3.654,0,0,0,2.623-1.575,7.362,7.362,0,0,0,1.127-2.127c1.021-2.929,2.021-5.864,3.051-8.79.155-.445.166-.637-.383-.6a14.04,14.04,0,0,1-1.791,0,.637.637,0,0,0-.777.566c-.462,1.662-.988,3.306-1.555,5.175-.413-1.162-.748-2.126-1.1-3.083-.319-.871-.425-2.093-1.046-2.505-.668-.444-1.824-.125-2.767-.136-.041,0-.08.034-.169.073q1.691,4.124,3.379,8.241a1.472,1.472,0,0,1-.748,2,1.818,1.818,0,0,1-.865.2c-.307-.008-.419.1-.44.439-.078,1.246-.094,1.246-1.314,1.246a3.545,3.545,0,0,1-.6-.006c-.469-.079-.707.157-.933.544-.925,1.587-1.88,3.159-2.83,4.731-.1.174-.147.422-.418.477a39.741,39.741,0,0,1-2.262-3.847,2.892,2.892,0,0,0-3.421-1.936c-.629.09-.754.239-.75.837.027,3.4,0,6.794.021,10.192C105.26,43.736,104.933,44.705,105.4,45.119Z" transform="translate(-46.561 -8.521)" fill="#ed0182"/>
    <path id="Path_3272" data-name="Path 3272" d="M105.874,26.385a15.831,15.831,0,0,1,1.94,0c.41.023.493-.136.485-.518-.021-1.317.017-2.636-.02-3.954-.016-.564.087-.816.717-.773a23.929,23.929,0,0,0,2.687,0c.5-.023.711.088.67.65a20.21,20.21,0,0,0-.007,2.127c.027.8-.349,1.932.147,2.319.522.409,1.571.1,2.387.142.389.021.442-.142.442-.485q-.016-6.12,0-12.241c0-.416-.145-.515-.523-.5a15.224,15.224,0,0,1-1.865,0c-.528-.04-.613.191-.6.659.027,1.267-.015,2.534.021,3.8.015.512-.151.642-.629.624-.919-.035-1.844-.05-2.761,0-.594.035-.718-.192-.683-.737.045-.656.017-1.317.009-1.976-.009-.758.262-1.8-.118-2.2-.478-.5-1.5-.093-2.288-.171-.485-.047-.579.16-.574.608.021,2,.009,4,.009,6.006s.013,4-.011,6.006C105.3,26.228,105.389,26.419,105.874,26.385Z" transform="translate(-46.63 -5.648)" fill="#ed0182"/>
    <path id="Path_3273" data-name="Path 3273" d="M144.378,73.687c0-.868.006-1.653,0-2.438-.006-.657.217-1.529-.109-1.914-.378-.447-1.265-.076-1.923-.159-.581-.072-.748.128-.742.736.03,3.522.007,7.044.022,10.567,0,.622-.278,1.449.126,1.808.343.306,1.134.079,1.727.108.518.026,1.058.116.968-.741a4.135,4.135,0,0,0,5.786-.4,5.52,5.52,0,0,0,.244-6.854C148.974,72.486,146.847,72.216,144.378,73.687Zm2.1,6.276a2.29,2.29,0,1,1,2.306-2.217A2.144,2.144,0,0,1,146.482,79.963Z" transform="translate(-62.671 -29.862)" fill="#ed0182"/>
    <path id="Path_3274" data-name="Path 3274" d="M144.691,32.814c.461.421,1.377.072,2.089.131.422.035.557-.11.548-.546-.026-1.307-.009-2.613-.009-3.955,2.5,1.429,4.559,1.192,6.039-.651a5.494,5.494,0,0,0-.125-6.852c-1.517-1.729-3.639-1.921-5.945-.453.274-.875-.255-.784-.741-.77a10.108,10.108,0,0,1-1.342-.006c-.518-.053-.663.111-.66.654.027,3.47.006,6.941.02,10.411C144.565,31.476,144.257,32.418,144.691,32.814Zm4.824-10.664a2.159,2.159,0,0,1,2.215,2.318,2.2,2.2,0,1,1-4.407-.055A2.14,2.14,0,0,1,149.515,22.15Z" transform="translate(-63.968 -8.427)" fill="#ed0182"/>
    <path id="Path_3275" data-name="Path 3275" d="M157.955,45.868c-2.109-1.471-4.288-1.316-5.824.335a5.488,5.488,0,0,0-.307,6.843,4.233,4.233,0,0,0,2.517,1.641,4,4,0,0,0,3.652-1c-.186.8.153.9.679.851a5.465,5.465,0,0,1,1.192,0c.645.076.869-.105.86-.831-.045-3.419-.018-6.837-.022-10.256,0-.682.232-1.615-.109-1.979-.436-.467-1.362-.081-2.072-.16-.473-.053-.588.139-.578.6C157.973,43.188,157.955,44.475,157.955,45.868Zm-2.214,6.226a2.289,2.289,0,1,1,2.2-2.243A2.138,2.138,0,0,1,155.741,52.094Z" transform="translate(-66.764 -17.817)" fill="#ed0182"/>
    <path id="Path_3276" data-name="Path 3276" d="M189.808,47.969c-.406-.34-1.281-.066-1.943-.131-.552-.055-.792.114-.642.8-2.19-1.5-4.377-1.319-5.9.377a5.5,5.5,0,0,0-.257,6.791,4.237,4.237,0,0,0,2.519,1.641,4.01,4.01,0,0,0,3.652-1.006c-.192.808.162.9.683.849a7.047,7.047,0,0,1,1.342,0c.54.058.713-.095.7-.686-.041-2.229-.006-4.458-.022-6.688C189.932,49.248,190.231,48.324,189.808,47.969ZM185,54.855a2.289,2.289,0,1,1,2.18-2.266A2.143,2.143,0,0,1,185,54.855Z" transform="translate(-79.711 -20.578)" fill="#ed0182"/>
    <path id="Path_3277" data-name="Path 3277" d="M129.992,75.809c-.359-.317-1.184-.064-1.8-.114-.546-.044-.97,0-.838.782a4.168,4.168,0,0,0-5.906.456,5.528,5.528,0,0,0,.045,7.034,4.19,4.19,0,0,0,5.994.282c-.371,1.011.171.9.627.892a13.748,13.748,0,0,1,1.417.009c.489.046.618-.123.613-.621-.027-2.28,0-4.561-.018-6.84C130.122,77.041,130.412,76.179,129.992,75.809Zm-4.81,6.9a2.289,2.289,0,1,1,2.193-2.257A2.144,2.144,0,0,1,125.181,82.707Z" transform="translate(-53.229 -32.604)" fill="#ed0182"/>
    <path id="Path_3278" data-name="Path 3278" d="M172.722,26.921c-.28-.165-.573-.31-.834-.5a.67.67,0,0,0-.919.021c-1.05.756-3.161.438-3.516-.9h.783c1.717,0,3.433-.006,5.151,0,.359,0,.594-.027.657-.491a4.949,4.949,0,0,0-3.2-5.39,4.864,4.864,0,0,0-5.866,2.363A5.23,5.23,0,0,0,166.2,28.3a5.538,5.538,0,0,0,6.663-.046C173.721,27.507,173.721,27.508,172.722,26.921ZM167.5,22.978a1.9,1.9,0,0,1,1.849-1.031,1.878,1.878,0,0,1,1.774,1.023c.221.41.033.473-.319.464-.249-.006-.5-.006-.744-.006s-.5,0-.744,0-.521,0-.782-.006-.52,0-.781.012C167.324,23.455,167.359,23.239,167.5,22.978Z" transform="translate(-72.812 -8.391)" fill="#ed0182"/>
    <path id="Path_3279" data-name="Path 3279" d="M140.2,55.3a9.487,9.487,0,0,1-1.226-.717.791.791,0,0,0-1.048.009,2.58,2.58,0,0,1-3.215-.389c-.1-.131-.286-.264-.182-.456.081-.148.267-.085.408-.085.895,0,1.791,0,2.687,0,.946,0,1.89,0,2.836,0,.295,0,.536-.011.579-.4a4.959,4.959,0,0,0-3.1-5.453,4.884,4.884,0,0,0-6.409,5.655,4.439,4.439,0,0,0,3.4,3.8,5.09,5.09,0,0,0,5.366-1.3C140.576,55.671,140.58,55.491,140.2,55.3Zm-5.65-4.277a1.9,1.9,0,0,1,1.816-.958,1.875,1.875,0,0,1,1.733.965c.222.381.16.543-.3.523-.247-.011-.5-.012-.744-.011s-.5.006-.744.006c-.373,0-.746-.012-1.117-.006-.124,0-.249.006-.371.012C134.3,51.585,134.366,51.342,134.55,51.024Z" transform="translate(-58.205 -20.531)" fill="#ed0182"/>
    <path id="Path_3280" data-name="Path 3280" d="M140.4,58.334c-.9,0-1.792,0-2.687,0,.9,0,1.791,0,2.687,0,.946,0,1.89,0,2.836,0C142.289,58.329,141.343,58.334,140.4,58.334Z" transform="translate(-60.98 -25.205)" fill="#ed0182"/>
    <path id="Path_3281" data-name="Path 3281" d="M112.918,79.972c.024-.424-.139-.5-.512-.491-1.171.021-2.342-.018-3.511.02-.5.017-.62-.148-.615-.637q.036-3.653,0-7.3c-.006-.775.343-1.834-.154-2.244-.472-.389-1.473-.088-2.239-.14-.475-.032-.587.146-.582.605.006.5.009,1,.011,1.5.006,1.5,0,3.005,0,4.507q0,.732,0,1.465c.005,1.465.009,2.929-.014,4.393-.009.567.1.787.718.767,1.543-.052,3.088,0,4.632-.024.738-.011,1.776.337,2.133-.137C113.162,81.751,112.873,80.751,112.918,79.972Z" transform="translate(-46.63 -29.863)" fill="#ed0182"/>
    <path id="Path_3282" data-name="Path 3282" d="M166.893,79.618c-.644-.256-1.329-.406-1.984-.634-.291-.1-.7-.191-.618-.624.087-.451.5-.413.85-.413.233,0,.515.046.613.221.467.834.964.334,1.458.072a10.859,10.859,0,0,1,.982-.538c.456-.185.377-.392.138-.715a4.347,4.347,0,0,0-5.968-.679,2.822,2.822,0,0,0-.947,2.588,2.687,2.687,0,0,0,1.98,2.237c.695.265,1.416.46,2.121.7.218.075.425.223.407.482a.542.542,0,0,1-.5.483c-.552.1-1.245.16-1.521-.334-.532-.958-1.012-.459-1.558-.127a10.305,10.305,0,0,1-.973.555c-.379.175-.37.377-.16.7a4.248,4.248,0,0,0,3.729,1.813,6.112,6.112,0,0,0,1.769-.291,2.861,2.861,0,0,0,2.1-2.731A2.684,2.684,0,0,0,166.893,79.618Z" transform="translate(-71.321 -32.588)" fill="#ed0182"/>
    <path id="Path_3283" data-name="Path 3283" d="M184.658,29.071c.436.364,1.374.085,2.088.13.415.024.554-.1.542-.538-.031-1.139-.018-2.278-.009-3.417.013-1.68.689-2.408,2.335-2.467.358-.012.472-.087.46-.456-.026-.759-.04-1.52,0-2.278.028-.479-.2-.488-.533-.435A3.056,3.056,0,0,0,187.3,21.2c-.045-1.447-.045-1.447-1.288-1.447a7.29,7.29,0,0,1-.895-.006c-.488-.061-.622.117-.615.618.027,2.2,0,4.405.02,6.608C184.531,27.7,184.2,28.69,184.658,29.071Z" transform="translate(-81.661 -8.464)" fill="#ed0182"/>
    <path id="Path_3284" data-name="Path 3284" d="M174.81,48.111c-.413-.355-1.325-.075-2.012-.14-.564-.055-.631.192-.625.686.025,2.177,0,4.355.016,6.532.006.724-.316,1.717.129,2.1.425.367,1.371.079,2.083.14.5.043.558-.175.551-.607-.012-.683-.013-1.366-.013-2.051s0-1.368,0-2.051c0-.215,0-.43,0-.645,0-.645.009-1.292-.007-1.937C174.92,49.437,175.24,48.48,174.81,48.111Z" transform="translate(-76.2 -20.709)" fill="#ed0182"/>
    <path id="Path_3285" data-name="Path 3285" d="M173.443,40.588a1.712,1.712,0,1,0,1.636,1.714A1.706,1.706,0,0,0,173.443,40.588Z" transform="translate(-76.057 -17.538)" fill="#ed0182"/>
    <path id="Path_3286" data-name="Path 3286" d="M138.176,54.607c.371-.006.744.006,1.117.006Z" transform="translate(-61.186 -23.595)" fill="#ececec"/>
  </g>
</svg>
