<svg xmlns="http://www.w3.org/2000/svg" xmlns:xlink="http://www.w3.org/1999/xlink" width="85" height="41" viewBox="0 0 85 41">
  <defs>
    <clipPath id="clip-path">
      <rect id="Rectangle_869" data-name="Rectangle 869" width="85" height="41" fill="#fff"/>
    </clipPath>
  </defs>
  <g id="logo_white" data-name="logo white" clip-path="url(#clip-path)">
    <path id="Path_3287" data-name="Path 3287" d="M37.992,7.459c-1.4-.315-2.792-.7-4.189-1.044q-2.346-.573-4.693-1.161c-1.245-.311-2.5-.6-3.731-.959-.912-.262-1.843-.49-2.77-.7-1.476-.341-2.942-.721-4.411-1.09-.886-.223-1.762-.492-2.65-.683-1.6-.343-3.161-.8-4.751-1.158A14.786,14.786,0,0,0,6.906,0a11.42,11.42,0,0,0-1.864.21,7.022,7.022,0,0,0-2.8,1.211A5.363,5.363,0,0,0,.034,5.241a11.142,11.142,0,0,0,.2,2.883c.228,1.543.475,3.085.694,4.629.233,1.643.426,3.292.721,4.926.138.761.2,1.536.314,2.3.247,1.623.492,3.247.72,4.874.214,1.528.453,3.05.676,4.575.236,1.6.425,3.212.713,4.807.14.775.146,1.564.335,2.344a4.122,4.122,0,0,0,1.344,2.18,7.523,7.523,0,0,0,4.917,1.877,35.906,35.906,0,0,0,6.066-.652c1.75-.247,3.5-.482,5.252-.724,1.655-.229,3.315-.408,4.96-.712.82-.152,1.655-.2,2.481-.322,1.748-.255,3.5-.466,5.252-.737a7.061,7.061,0,0,0,2.375-.71,5.259,5.259,0,0,0,2.832-3.907c.252-1.543.481-3.092.709-4.639.225-1.525.467-3.048.69-4.572.22-1.506.472-3.007.684-4.512.156-1.111.362-2.218.479-3.335a4.936,4.936,0,0,1,.09-.874,6.078,6.078,0,0,0-.551-4.63A5.616,5.616,0,0,0,37.992,7.459ZM15.218,25.347a13.764,13.764,0,0,0-1.56,0c-.331.017-.424-.1-.418-.428.02-1.039,0-2.08.014-3.119.006-.335-.044-.491-.43-.473-.75.034-1.5.028-2.253,0-.344-.012-.411.116-.405.435.019,1.039-.008,2.08.015,3.119.008.354-.076.489-.445.464a13.7,13.7,0,0,0-1.444,0c-.278.011-.4-.041-.4-.375q.021-4.708,0-9.418c0-.285.08-.381.357-.356.625.055,1.424-.262,1.827.132.294.288.087,1.112.094,1.7.007.569.014,1.138,0,1.707-.009.274.057.379.348.37.75-.021,1.5-.025,2.254,0,.366.012.5-.091.487-.484-.027-1,0-2-.016-3-.007-.335.091-.442.42-.426a13.753,13.753,0,0,0,1.56,0c.367-.024.445.1.44.46-.02,1.55-.008,3.1-.008,4.65,0,1.53-.012,3.061.009,4.591C15.665,25.249,15.581,25.371,15.218,25.347Zm11.8,0c-.519-.019-1.04-.026-1.558,0-.4.02-.53-.112-.522-.532.025-1.431.009-2.862.009-4.292V19.8c-.725,1.047-1.284,2.008-1.836,2.974a3.948,3.948,0,0,1-.616.9c-.168.165-.267.2-.411-.045-.582-.992-1.188-1.97-1.777-2.957a2.251,2.251,0,0,0-.567-.756c-.186.284-.082.6-.086.9-.014,1.313-.022,2.627,0,3.94.008.431-.058.642-.55.594-.589-.055-1.393.2-1.726-.1-.38-.348-.112-1.177-.116-1.8-.013-2.568.009-5.136-.017-7.7,0-.478.137-.61.572-.559a2.685,2.685,0,0,0,.864,0c.843-.18,1.241.3,1.6.966.589,1.084,1.226,2.141,1.85,3.2.132.224.219.183.35-.044.418-.72.874-1.415,1.306-2.127.365-.6.729-1.2,1.069-1.82.1-.188.244-.166.387-.169.6-.008,1.194.011,1.79-.009.279-.009.3.123.3.352q-.007,4.735,0,9.468C27.345,25.264,27.281,25.354,27.022,25.345Zm7.44,0c-1.673-.012-3.347-.017-5.02,0-.357,0-.4-.137-.394-.441.013-1.548.006-3.094.006-4.641,0-1.528.01-3.055-.007-4.583,0-.36.054-.53.459-.494a8.334,8.334,0,0,0,1.384,0c.471-.037.57.158.565.607-.022,2.272,0,4.544-.017,6.815,0,.363.064.511.462.494.864-.034,1.731,0,2.6-.017.265,0,.377.057.365.353a15.262,15.262,0,0,0,0,1.527C34.881,25.3,34.744,25.347,34.463,25.345Z" transform="translate(0.001 0.001)" fill="#fff"/>
    <path id="Path_3288" data-name="Path 3288" d="M105.343,39.368c.312.276,1.032.044,1.566.1.493.047.646-.086.632-.622-.041-1.695-.015-3.391-.015-5.26.194.3.3.447.4.605.663,1.1,1.319,2.207,1.982,3.307.3.5.391.5.695-.008q1.127-1.877,2.244-3.758l.109.021v.567c0,1.55.011,3.1-.008,4.649,0,.365.061.532.463.5a7.124,7.124,0,0,1,1.327,0c.446.046.531-.116.528-.546-.021-2.667.013-5.335-.026-8-.009-.646.088-.958.8-1a2.827,2.827,0,0,0,2.029-1.218,5.7,5.7,0,0,0,.872-1.645c.79-2.266,1.563-4.536,2.36-6.8.12-.344.128-.493-.3-.464a10.86,10.86,0,0,1-1.386,0,.493.493,0,0,0-.6.438c-.358,1.286-.764,2.557-1.2,4-.32-.9-.579-1.644-.85-2.385-.247-.673-.329-1.619-.809-1.938-.516-.343-1.411-.1-2.141-.1-.031,0-.062.026-.131.057l2.614,6.375a1.138,1.138,0,0,1-.579,1.544,1.406,1.406,0,0,1-.669.155c-.237-.006-.324.08-.341.34-.06.964-.073.964-1.017.964a2.742,2.742,0,0,1-.462,0c-.363-.061-.547.121-.722.421-.716,1.228-1.454,2.444-2.189,3.66-.081.134-.114.327-.323.369a30.742,30.742,0,0,1-1.75-2.976,2.238,2.238,0,0,0-2.647-1.5c-.487.07-.584.185-.58.648.021,2.628,0,5.256.016,7.884C105.234,38.3,104.982,39.048,105.343,39.368Z" transform="translate(-59.826 -11.057)" fill="#fff"/>
    <path id="Path_3289" data-name="Path 3289" d="M105.745,23.371a12.246,12.246,0,0,1,1.5,0c.317.018.381-.1.375-.4-.016-1.019.013-2.039-.015-3.059-.012-.436.067-.631.555-.6a18.51,18.51,0,0,0,2.078,0c.388-.018.55.068.519.5a15.634,15.634,0,0,0-.006,1.645c.021.62-.27,1.494.113,1.794.4.316,1.216.077,1.847.11.3.017.342-.11.342-.375q-.012-4.735,0-9.469c0-.322-.112-.4-.4-.387a11.777,11.777,0,0,1-1.443,0c-.409-.031-.475.147-.468.51.021.98-.012,1.96.016,2.941.012.4-.117.5-.486.482-.711-.027-1.426-.039-2.136,0-.459.027-.556-.149-.528-.57.035-.507.013-1.019.007-1.529-.007-.586.2-1.394-.091-1.7-.369-.387-1.163-.072-1.77-.132-.375-.037-.448.124-.444.471.016,1.549.007,3.1.007,4.646s.01,3.1-.008,4.646C105.3,23.249,105.37,23.4,105.745,23.371Z" transform="translate(-59.915 -7.329)" fill="#fff"/>
    <path id="Path_3290" data-name="Path 3290" d="M143.733,72.651c0-.671,0-1.279,0-1.886,0-.508.168-1.183-.084-1.48-.293-.346-.978-.059-1.488-.123-.449-.055-.579.1-.574.57.023,2.725.006,5.45.017,8.174,0,.481-.215,1.121.1,1.4.265.237.878.061,1.336.084.4.02.819.09.749-.573a3.2,3.2,0,0,0,4.476-.308,4.27,4.27,0,0,0,.189-5.3C147.289,71.721,145.644,71.513,143.733,72.651Zm1.628,4.855a1.772,1.772,0,1,1,1.784-1.715A1.659,1.659,0,0,1,145.361,77.506Z" transform="translate(-80.527 -38.749)" fill="#fff"/>
    <path id="Path_3291" data-name="Path 3291" d="M144.638,29.8c.357.326,1.066.055,1.616.1.327.027.431-.085.424-.422-.02-1.011-.007-2.022-.007-3.06,1.933,1.105,3.527.922,4.672-.5a4.25,4.25,0,0,0-.1-5.3c-1.173-1.338-2.815-1.486-4.6-.35.212-.677-.2-.606-.573-.6a7.819,7.819,0,0,1-1.038,0c-.4-.041-.513.086-.511.506.021,2.685,0,5.369.015,8.054C144.541,28.765,144.3,29.494,144.638,29.8Zm3.732-8.25a1.771,1.771,0,1,1-1.7,1.75A1.67,1.67,0,0,1,148.37,21.551Z" transform="translate(-82.192 -10.935)" fill="#fff"/>
    <path id="Path_3292" data-name="Path 3292" d="M156.329,44.819a3.237,3.237,0,0,0-4.505.26,4.246,4.246,0,0,0-.238,5.294,3.274,3.274,0,0,0,1.947,1.269,3.094,3.094,0,0,0,2.825-.777c-.144.616.118.7.525.658a4.228,4.228,0,0,1,.922,0c.5.059.672-.081.666-.643-.034-2.645-.014-5.289-.017-7.934,0-.527.179-1.249-.084-1.531-.337-.361-1.054-.063-1.6-.124-.366-.041-.455.107-.447.461C156.343,42.746,156.329,43.741,156.329,44.819Zm-1.713,4.816a1.771,1.771,0,1,1,1.706-1.735A1.654,1.654,0,0,1,154.616,49.635Z" transform="translate(-85.785 -23.119)" fill="#fff"/>
    <path id="Path_3293" data-name="Path 3293" d="M187.59,47.891c-.314-.263-.991-.051-1.5-.1-.427-.042-.612.088-.5.622-1.694-1.157-3.386-1.02-4.566.291a4.255,4.255,0,0,0-.2,5.254,3.278,3.278,0,0,0,1.948,1.269,3.1,3.1,0,0,0,2.825-.778c-.148.625.125.692.528.657a5.452,5.452,0,0,1,1.038,0c.418.045.551-.073.543-.531-.031-1.725,0-3.449-.017-5.174C187.686,48.881,187.918,48.166,187.59,47.891Zm-3.718,5.327a1.771,1.771,0,1,1,1.687-1.753A1.658,1.658,0,0,1,183.872,53.218Z" transform="translate(-102.421 -26.702)" fill="#fff"/>
    <path id="Path_3294" data-name="Path 3294" d="M127.776,75.729c-.278-.245-.916-.05-1.392-.088-.422-.034-.75,0-.648.605a3.224,3.224,0,0,0-4.569.353,4.277,4.277,0,0,0,.035,5.441,3.242,3.242,0,0,0,4.637.218c-.287.782.132.694.485.69a10.636,10.636,0,0,1,1.1.007c.378.035.478-.1.475-.48-.021-1.763,0-3.528-.014-5.291C127.877,76.682,128.1,76.015,127.776,75.729Zm-3.721,5.336a1.771,1.771,0,1,1,1.7-1.746A1.659,1.659,0,0,1,124.055,81.065Z" transform="translate(-68.394 -42.306)" fill="#fff"/>
    <path id="Path_3295" data-name="Path 3295" d="M170.845,25.222c-.216-.127-.444-.239-.645-.387a.518.518,0,0,0-.711.016c-.813.585-2.445.339-2.72-.7h.606c1.328,0,2.656,0,3.984,0,.278,0,.459-.021.508-.38a3.829,3.829,0,0,0-2.477-4.17,3.763,3.763,0,0,0-4.538,1.828,4.046,4.046,0,0,0,.948,4.853,4.284,4.284,0,0,0,5.155-.035C171.618,25.675,171.618,25.676,170.845,25.222Zm-4.042-3.05a1.47,1.47,0,0,1,1.43-.8,1.453,1.453,0,0,1,1.372.791c.171.317.025.366-.247.359-.192,0-.383,0-.575,0l-.575,0c-.2,0-.4,0-.6,0s-.4,0-.6.009C166.669,22.541,166.7,22.374,166.8,22.172Z" transform="translate(-93.556 -10.887)" fill="#fff"/>
    <path id="Path_3296" data-name="Path 3296" d="M138.218,53.538a7.34,7.34,0,0,1-.948-.554.612.612,0,0,0-.811.007,2,2,0,0,1-2.487-.3c-.078-.1-.221-.2-.141-.353.063-.114.207-.066.316-.066.692,0,1.386,0,2.078,0,.731,0,1.462,0,2.194,0,.228,0,.415-.008.448-.311a3.836,3.836,0,0,0-2.4-4.218,3.778,3.778,0,0,0-4.958,4.375,3.434,3.434,0,0,0,2.634,2.943,3.937,3.937,0,0,0,4.151-1.009C138.509,53.824,138.512,53.685,138.218,53.538Zm-4.371-3.309a1.472,1.472,0,0,1,1.4-.741,1.45,1.45,0,0,1,1.341.747c.172.295.124.42-.231.4-.191-.008-.383-.009-.575-.008s-.384,0-.575,0c-.288,0-.577-.009-.864,0-.1,0-.192,0-.287.009C133.657,50.663,133.7,50.476,133.847,50.229Z" transform="translate(-74.787 -26.641)" fill="#fff"/>
    <path id="Path_3297" data-name="Path 3297" d="M139.789,58.334c-.693,0-1.386,0-2.078,0,.694,0,1.386,0,2.078,0,.731,0,1.462,0,2.194,0C141.253,58.33,140.521,58.334,139.789,58.334Z" transform="translate(-78.353 -32.706)" fill="#fff"/>
    <path id="Path_3298" data-name="Path 3298" d="M111.194,77.513c.019-.328-.107-.386-.4-.38-.906.017-1.812-.014-2.716.015-.388.013-.479-.114-.476-.493q.028-2.826,0-5.65c0-.6.265-1.419-.119-1.736-.366-.3-1.139-.068-1.732-.109-.367-.025-.454.113-.45.468,0,.387.007.775.008,1.162,0,1.162,0,2.325,0,3.487q0,.566,0,1.134c0,1.134.007,2.266-.011,3.4-.007.439.074.609.556.593,1.194-.04,2.389,0,3.584-.019.571-.008,1.374.261,1.65-.106C111.383,78.89,111.16,78.116,111.194,77.513Z" transform="translate(-59.914 -38.75)" fill="#fff"/>
    <path id="Path_3299" data-name="Path 3299" d="M165.573,78.668c-.5-.2-1.028-.314-1.535-.491-.225-.078-.543-.147-.478-.482s.384-.32.658-.32c.181,0,.4.035.475.171.361.645.746.258,1.128.055a8.406,8.406,0,0,1,.759-.416c.353-.143.292-.3.106-.553a3.363,3.363,0,0,0-4.616-.525,2.183,2.183,0,0,0-.733,2,2.079,2.079,0,0,0,1.531,1.73c.537.205,1.1.356,1.641.541.169.058.329.172.315.373a.419.419,0,0,1-.39.374c-.427.076-.963.124-1.176-.258-.411-.741-.783-.355-1.205-.1a7.971,7.971,0,0,1-.753.429c-.293.136-.286.291-.124.539a3.286,3.286,0,0,0,2.884,1.4,4.728,4.728,0,0,0,1.369-.225,2.213,2.213,0,0,0,1.623-2.113A2.076,2.076,0,0,0,165.573,78.668Z" transform="translate(-91.64 -42.286)" fill="#fff"/>
    <path id="Path_3300" data-name="Path 3300" d="M184.6,26.924c.337.282,1.063.066,1.616.1.321.019.428-.075.419-.416-.024-.881-.014-1.762-.007-2.643.01-1.3.533-1.863,1.806-1.909.277-.009.365-.067.356-.353-.02-.587-.031-1.176,0-1.762.022-.37-.156-.377-.412-.336a2.364,2.364,0,0,0-1.737,1.233c-.035-1.119-.035-1.119-1-1.119a5.64,5.64,0,0,1-.692,0c-.378-.047-.481.091-.476.478.021,1.7,0,3.408.015,5.112C184.5,25.862,184.251,26.629,184.6,26.924Z" transform="translate(-104.926 -10.982)" fill="#fff"/>
    <path id="Path_3301" data-name="Path 3301" d="M174.192,48.069c-.32-.275-1.025-.058-1.556-.109-.436-.042-.488.149-.484.531.019,1.684,0,3.369.013,5.053,0,.56-.244,1.328.1,1.624.329.284,1.061.061,1.612.109.387.033.432-.136.426-.469-.009-.528-.01-1.057-.01-1.586s0-1.058,0-1.586c0-.166,0-.333,0-.5,0-.5.007-1-.006-1.5C174.278,49.1,174.525,48.355,174.192,48.069Z" transform="translate(-97.909 -26.871)" fill="#fff"/>
    <path id="Path_3302" data-name="Path 3302" d="M173.062,40.588a1.324,1.324,0,1,0,1.266,1.326A1.32,1.32,0,0,0,173.062,40.588Z" transform="translate(-97.726 -22.756)" fill="#fff"/>
    <path id="Path_3303" data-name="Path 3303" d="M138.176,54.607c.287,0,.575,0,.864,0Z" transform="translate(-78.617 -30.616)" fill="#fff"/>
  </g>
</svg>
