<svg xmlns="http://www.w3.org/2000/svg" width="15.297" height="15.297" viewBox="0 0 15.297 15.297">
  <path id="search" d="M7.352,0A7.272,7.272,0,0,0,0,7.189a7.272,7.272,0,0,0,7.352,7.189,7.425,7.425,0,0,0,4.59-1.573l2.39,2.331.064.054a.576.576,0,0,0,.737-.055.545.545,0,0,0,0-.783l-2.361-2.3A7.077,7.077,0,0,0,14.7,7.189,7.272,7.272,0,0,0,7.352,0Zm0,1.107a6.152,6.152,0,0,1,6.219,6.082,6.152,6.152,0,0,1-6.219,6.082A6.152,6.152,0,0,1,1.132,7.189,6.152,6.152,0,0,1,7.352,1.107Z" fill="#cbcfc9" fill-rule="evenodd"/>
</svg>
