<svg xmlns="http://www.w3.org/2000/svg" width="30" height="30" viewBox="0 0 30 30">
  <g id="tw" transform="translate(0)">
    <circle id="Ellipse_2" data-name="Ellipse 2" cx="15" cy="15" r="15" transform="translate(0)" fill="#fff"/>
    <path id="Shape" d="M0,10.517A8.737,8.737,0,0,0,3.808,9.4C2.787,8.747-1.277,6.422,1.394.171A10.367,10.367,0,0,0,5.206,3.077a4.449,4.449,0,0,0,1.461.387h0A3.529,3.529,0,0,1,8.946.253a3.7,3.7,0,0,1,3.928.8c.082,0,.162,0,.243,0A2.712,2.712,0,0,0,14.849.584a5.118,5.118,0,0,1-.9,2.4c0,5.5-3.477,8.176-7.006,8.86a8.512,8.512,0,0,1-1.605.141C3.181,11.983.8,11.33,0,10.517Z" transform="translate(8 9)"/>
  </g>
</svg>
